PathFileType	4	(x/y/z)	S05_P20_T18
DataRate	CameraRate	NumFrames	NumMarkers	Units	OrigDataRate	OrigDataStartFrame	OrigNumFrames
240	240	5	50	mm	240	308	351
Frame#	Time	Sternum			R.Acromium			L.Acromium			Top.Head			R.ASIS			L.ASIS			R.PSIS			L.PSIS			R.Great.Tro			L.Great.Tro			R.Iliac.Crest			L.Iliac.Crest			V.Sacral			R.Thigh.Upper.Post			R.Thigh.Lower.Ant			R.Thigh.Lower.Post			R.Thigh.Upper.Ant			R.Knee.Lat			R.Knee.Med			R.Shank.Upper.Post			R.Shank.Lower.Ant			R.Shank.Lower.Post			R.Shank.Upper.Ant			R.Ankle.Lat			R.Ankle.Med			R.Heel.Upper			R.Heel.Med			R.Heel.Lat			R.Toe.Lat			R.Toe.Med			R.Toe.Tip			L.Thigh.Upper.Post			L.Thigh.Lower.Ant			L.Thigh.Lower.Post			L.Thigh.Upper.Ant			L.Knee.Lat			L.Shank.Upper.Post			L.Shank.Lower.Ant			L.Shank.Lower.Post			L.Shank.Upper.Ant			L.Ankle.Lat			L.Ankle.Med			L.Heel.Upper			L.Heel.Med			L.Heel.Lat			L.Toe.Lat			L.Toe.Med			L.Toe.Tip			Cervical.Spine			Back			
		X1	Y1	Z1	X2	Y2	Z2	X3	Y3	Z3	X4	Y4	Z4	X5	Y5	Z5	X6	Y6	Z6	X7	Y7	Z7	X8	Y8	Z8	X9	Y9	Z9	X10	Y10	Z10	X11	Y11	Z11	X12	Y12	Z12	X13	Y13	Z13	X14	Y14	Z14	X15	Y15	Z15	X16	Y16	Z16	X17	Y17	Z17	X18	Y18	Z18	X19	Y19	Z19	X20	Y20	Z20	X21	Y21	Z21	X22	Y22	Z22	X23	Y23	Z23	X24	Y24	Z24	X25	Y25	Z25	X26	Y26	Z26	X27	Y27	Z27	X28	Y28	Z28	X29	Y29	Z29	X30	Y30	Z30	X31	Y31	Z31	X32	Y32	Z32	X33	Y33	Z33	X34	Y34	Z34	X35	Y35	Z35	X36	Y36	Z36	X37	Y37	Z37	X38	Y38	Z38	X39	Y39	Z39	X40	Y40	Z40	X41	Y41	Z41	X42	Y42	Z42	X43	Y43	Z43	X44	Y44	Z44	X45	Y45	Z45	X46	Y46	Z46	X47	Y47	Z47	X48	Y48	Z48	X49	Y49	Z49	X50	Y50	Z50	

308	1.2792	314.2	1268	307.58	230.79	1544.3	447.01	231.02	1547.7	126.02	237.45	1836.1	273.69	224.35	1022	430.6	239.29	1021.4	182.21	28.521	1041.4	337.81	34.88	1046.4	246.37	150.37	944.17	495.69	148.87	944.89	106.43	136.66	1107	466.09	155.44	1101.5	132.85	17.81	1009	302.97	286.59	749.32	497.56	360.49	701.41	444.91	308.23	662.78	478.4	334.15	785.67	462.88	326.21	567.44	461.28	340.55	557.93	331.57	237.9	333.82	434.12	295.2	264.75	438	235.45	259.18	415.47	299.13	340.59	454.9	275.07	162.85	416.74	295.79	189.83	331.95	212.08	109.79	343.84	229.47	79.498	317.25	216.87	80.458	381.02	370.56	74.67	458.86	421.78	89.235	347.83	474.01	112.9	401.82	140.69	705.56	121.22	216.46	629.38	148.26	146.57	611.72	141.29	217.85	718.91	127.99	153.04	519.55	151.99	68.347	325.19	158.39	129.22	260.54	164.95	59.025	254.91	179.2	134.68	329.77	149.32	74.572	115.85	193.15	110.54	132.17	278.35	12.845	70.747	247.7	26.048	44.726	279.14	14.464	43.536	218.82	194.34	37.914	157.12	222.81	50.806	275.77	283.55	58.382	218.69	181.2	1579	290.19	52.462	1311.1	291.43
309	1.2833	319.57	1267.8	307.63	236.07	1544	447.21	236.41	1547.7	126.27	242.81	1835.9	274.19	229.89	1021.7	430.57	244.48	1021.1	182.19	33.946	1041.4	338.07	40.204	1046.5	246.64	155.82	943.86	495.71	153.69	944.88	106.53	142.23	1106.7	466.2	160.68	1101.4	132.98	23.168	1009	303.21	291.16	748.3	497.18	364.66	700.1	444.33	312.34	661.68	477.95	338.74	784.46	462.38	330.58	566.62	460.54	344.55	556.9	330.76	248.4	330.69	434.46	307.55	263.3	438.55	247.97	255.95	416.08	309.37	339.28	455.2	290.53	160.55	417.77	310.24	187.79	332.88	228.94	105.46	345.2	247.07	75.622	318.66	234.58	76.381	382.4	388.64	75.033	459.84	439.15	90.847	348.74	490.86	116.08	402.55	143.74	705.71	121.34	219.02	629.03	148.4	148.98	611.84	141.42	221.03	718.51	128.12	154.59	519.52	152.16	69.107	325.48	158.55	129.77	260.57	165.03	59.57	255.2	179.39	135.45	329.81	149.41	74.729	115.98	193.27	110.85	132.18	278.49	12.954	70.825	247.84	26.129	44.749	279.24	14.521	43.657	218.93	194.37	37.902	157.13	222.9	50.666	275.81	283.66	58.164	218.69	186.55	1578.8	290.4	57.806	1310.9	291.49
310	1.2875	324.95	1267.6	307.68	241.35	1543.6	447.42	241.8	1547.6	126.52	248.17	1835.6	274.7	235.45	1021.4	430.56	249.69	1020.8	182.18	39.39	1041.4	338.35	45.542	1046.6	246.93	161.26	943.47	495.74	158.53	944.83	106.62	147.8	1106.4	466.33	165.93	1101.3	133.13	28.543	1009	303.46	295.67	747.16	496.81	368.73	698.63	443.74	316.37	660.45	477.51	343.27	783.11	461.87	334.88	565.7	459.8	348.46	555.74	329.93	258.82	327.67	434.83	319.78	261.98	439.12	260.38	252.88	416.74	319.5	338.05	455.52	305.85	158.45	418.82	324.52	185.92	333.84	245.65	101.42	346.62	264.47	72.039	320.1	252.12	72.602	383.83	406.49	75.592	460.78	456.23	92.626	349.63	507.42	119.37	403.22	146.83	705.84	121.45	221.62	628.67	148.53	151.44	611.94	141.54	224.24	718.1	128.25	156.19	519.48	152.31	69.903	325.76	158.71	130.35	260.6	165.11	60.143	255.5	179.59	136.24	329.84	149.49	74.892	116.12	193.39	111.16	132.19	278.63	13.06	70.901	247.98	26.21	44.768	279.34	14.577	43.775	219.04	194.4	37.888	157.13	223	50.523	275.86	283.78	57.937	218.7	191.91	1578.5	290.63	63.149	1310.6	291.57
311	1.2917	330.33	1267.2	307.74	246.64	1543.2	447.64	247.19	1547.5	126.8	253.52	1835.3	275.23	241.01	1021	430.56	254.91	1020.4	182.19	44.852	1041.2	338.64	50.895	1046.5	247.23	166.7	943.01	495.78	163.39	944.75	106.72	153.38	1106.1	466.48	171.2	1101.1	133.28	33.932	1008.9	303.73	300.13	745.9	496.45	372.7	697.03	443.13	320.33	659.11	477.11	347.72	781.63	461.34	339.11	564.69	459.06	352.29	554.48	329.08	269.14	324.76	435.25	331.85	260.8	439.71	272.67	249.97	417.44	329.51	336.91	455.86	320.98	156.56	419.87	338.6	184.23	334.81	262.19	97.663	348.07	281.66	68.75	321.57	269.47	69.125	385.31	424.07	76.337	461.7	472.98	94.555	350.47	523.64	122.77	403.84	149.97	705.94	121.56	224.3	628.3	148.64	153.96	612.02	141.66	227.5	717.67	128.36	157.86	519.42	152.47	70.74	326.03	158.87	130.96	260.61	165.19	60.75	255.79	179.79	137.07	329.87	149.58	75.063	116.25	193.52	111.48	132.2	278.78	13.164	70.976	248.14	26.29	44.785	279.46	14.634	43.892	219.16	194.42	37.871	157.13	223.09	50.375	275.9	283.91	57.7	218.71	197.26	1578.2	290.87	68.491	1310.3	291.66
312	1.2958	335.7	1266.9	307.8	251.94	1542.7	447.88	252.57	1547.3	127.09	258.85	1835	275.77	246.59	1020.5	430.57	260.15	1020	182.21	50.329	1041.1	338.96	56.259	1046.5	247.54	172.15	942.47	495.81	168.27	944.63	106.83	158.95	1105.6	466.65	176.49	1100.9	133.45	39.335	1008.8	304.01	304.54	744.54	496.11	376.6	695.32	442.52	324.22	657.65	476.72	352.12	780.04	460.79	343.29	563.61	458.33	356.06	553.11	328.21	279.36	321.98	435.7	343.74	259.75	440.3	284.8	247.24	418.17	339.39	335.86	456.21	335.9	154.87	420.94	352.47	182.72	335.78	278.49	94.199	349.55	298.58	65.754	323.04	286.56	65.949	386.8	441.34	77.254	462.57	489.37	96.614	351.26	539.5	126.24	404.38	153.17	706.01	121.67	227.04	627.92	148.74	156.55	612.07	141.78	230.81	717.21	128.47	159.61	519.34	152.62	71.628	326.3	159.03	131.6	260.61	165.27	61.397	256.09	180	137.94	329.88	149.67	75.243	116.38	193.66	111.81	132.19	278.93	13.267	71.05	248.31	26.373	44.799	279.58	14.69	44.008	219.29	194.45	37.852	157.13	223.2	50.224	275.94	284.04	57.454	218.72	202.61	1577.8	291.13	73.833	1309.9	291.77
